<?xml version="1.0" encoding="utf-8"?><!DOCTYPE svg PUBLIC "-//W3C//DTD SVG 1.1//EN" "http://www.w3.org/Graphics/SVG/1.1/DTD/svg11.dtd"><svg xmlns="http://www.w3.org/2000/svg" xmlns:xlink="http://www.w3.org/1999/xlink"><symbol viewBox="0 0 8 8" id="checkbox"><path fill="#3e95df" d="M6.4 1l-.7.7-2.8 2.8-.8-.8-.7-.7L0 4.4l.7.7 1.5 1.5.7.7.7-.7 3.5-3.5.7-.7L6.4 1z"/></symbol><symbol viewBox="0 0 17 17" id="grave"><title>Page 1</title><path d="M15.3 15.3V6.8c0-3.74-3.06-6.8-6.8-6.8-3.74 0-6.8 3.06-6.8 6.8v8.5H0V17h17v-1.7h-1.7zm-3.4-9.35H9.35v4.25h-1.7V5.95H5.1v-1.7h2.55v-1.7h1.7v1.7h2.55v1.7z" fill="#8A98A8" fill-rule="evenodd"/></symbol></svg>