<?xml version="1.0" encoding="UTF-8" standalone="no"?>
<svg width="17px" height="17px" viewBox="0 0 17 17" version="1.1" xmlns="http://www.w3.org/2000/svg" xmlns:xlink="http://www.w3.org/1999/xlink">
    <!-- Generator: Sketch 3.8.3 (29802) - http://www.bohemiancoding.com/sketch -->
    <title>Page 1</title>
    <desc>Created with Sketch.</desc>
    <defs></defs>
    <g id="Muni-Design-V3" stroke="none" stroke-width="1" fill="none" fill-rule="evenodd">
        <g id="Coloured-Dashboard-Logged" transform="translate(-30.000000, -636.000000)" fill="#8A98A8">
            <g id="Sidebar" transform="translate(-2.000000, 0.000000)">
                <g id="Search" transform="translate(1.000000, 611.000000)">
                    <g id="Sidebar-Item-">
                        <g>
                            <path d="M46.3,40.3 L46.3,31.8 C46.3,28.06 43.24,25 39.5,25 C35.76,25 32.7,28.06 32.7,31.8 L32.7,40.3 L31,40.3 L31,42 L48,42 L48,40.3 L46.3,40.3 Z M42.9,30.95 L40.35,30.95 L40.35,35.2 L38.65,35.2 L38.65,30.95 L36.1,30.95 L36.1,29.25 L38.65,29.25 L38.65,27.55 L40.35,27.55 L40.35,29.25 L42.9,29.25 L42.9,30.95 Z" id="Page-1"></path>
                        </g>
                    </g>
                </g>
            </g>
        </g>
    </g>
</svg>